# xmcd
#
# Track frame offsets:
#	150
#	23382
#	42255
#	59275
#	73960
#	91967
#	112172
#	133877
#	150875
#	169900
#	193727
#	213720
#
# Disc length: 3051 seconds
#
# Revision: 0
# Processed by: cddbd v1.5.2PL0 Copyright (c) Steve Scherf et al.
# Submitted via: EasyCDDAExtractor 2010.4.0.0
#
DISCID=ab0be90c
DTITLE=Various Artist - The Postcard From Kobenhavn
DYEAR=1900
DGENRE=
TTITLE0=Pool And Darts-Alice Carreri and String Swing
TTITLE1=City Love-Malene Mortensen
TTITLE2=I Only Want To Be With You-Inger Marie Gundersen
TTITLE3=Comment Te Dire Adieu-Alice Carreri and String Swing
TTITLE4=Julie-Veronica Mortensen
TTITLE5=Orlando Superstar-Josefine Cronholm and String Swing
TTITLE6=Will You Still Love Me Tomorrow-Inger Marie Gundersen
TTITLE7=Morning Sun and Velvet Moon-Malene Mortensen
TTITLE8=Think Twice-Veronica Mortensen
TTITLE9=The First Time Ever I Saw Your Face-Inger Marie Gundersen
TTITLE10=Dreamchild-Josefine Cronholm
TTITLE11=Lullaby-Kaya Bruel
EXTD=
EXTT0=
EXTT1=
EXTT2=
EXTT3=
EXTT4=
EXTT5=
EXTT6=
EXTT7=
EXTT8=
EXTT9=
EXTT10=
EXTT11=
PLAYORDER=
